<?xml version="1.0" encoding="UTF-8" standalone="no"?>
<!-- Created with Inkscape (http://www.inkscape.org/) -->

<svg
   xmlns:dc="http://purl.org/dc/elements/1.1/"
   xmlns:cc="http://creativecommons.org/ns#"
   xmlns:rdf="http://www.w3.org/1999/02/22-rdf-syntax-ns#"
   xmlns:svg="http://www.w3.org/2000/svg"
   xmlns="http://www.w3.org/2000/svg"
   xmlns:sodipodi="http://sodipodi.sourceforge.net/DTD/sodipodi-0.dtd"
   xmlns:inkscape="http://www.inkscape.org/namespaces/inkscape"
   width="231"
   height="60"
   id="svg2"
   version="1.1"
   inkscape:version="0.48.4 r9939"
   sodipodi:docname="logo.svg"
   inkscape:export-filename="/home/sushmit/Desktop/logo2.png"
   inkscape:export-xdpi="90"
   inkscape:export-ydpi="90">
  <defs
     id="defs4" />
  <sodipodi:namedview
     id="base"
     pagecolor="#ffffff"
     bordercolor="#666666"
     borderopacity="1.0"
     inkscape:pageopacity="1"
     inkscape:pageshadow="2"
     inkscape:zoom="1"
     inkscape:cx="149.08334"
     inkscape:cy="81.596631"
     inkscape:document-units="px"
     inkscape:current-layer="layer1"
     showgrid="false"
     showguides="true"
     inkscape:guide-bbox="true"
     inkscape:window-width="1280"
     inkscape:window-height="776"
     inkscape:window-x="0"
     inkscape:window-y="24"
     inkscape:window-maximized="1">
    <sodipodi:guide
       orientation="0,1"
       position="106,738"
       id="guide3788" />
    <sodipodi:guide
       orientation="1,0"
       position="408,732"
       id="guide3790" />
    <sodipodi:guide
       orientation="0,1"
       position="264,286"
       id="guide3792" />
    <sodipodi:guide
       orientation="0,1"
       position="412,810"
       id="guide3794" />
    <sodipodi:guide
       orientation="1,0"
       position="358,346"
       id="guide3796" />
    <sodipodi:guide
       orientation="0,1"
       position="180,608"
       id="guide3798" />
    <sodipodi:guide
       orientation="1,0"
       position="36.363636,810"
       id="guide3814" />
  </sodipodi:namedview>
  <metadata
     id="metadata7">
    <rdf:RDF>
      <cc:Work
         rdf:about="">
        <dc:format>image/svg+xml</dc:format>
        <dc:type
           rdf:resource="http://purl.org/dc/dcmitype/StillImage" />
        <dc:title />
      </cc:Work>
    </rdf:RDF>
  </metadata>
  <g
     inkscape:label="Layer 1"
     inkscape:groupmode="layer"
     id="layer1"
     style="display:inline"
     transform="translate(0,-992.3622)">
    <text
       xml:space="preserve"
       style="font-size:72px;font-style:normal;font-variant:normal;font-weight:normal;font-stretch:normal;line-height:125%;letter-spacing:0px;word-spacing:0px;fill:#000000;fill-opacity:1;stroke:none;font-family:STIXSizeOneSym;-inkscape-font-specification:STIXSizeOneSym"
       x="222.85715"
       y="463.79074"
       id="text2989"
       sodipodi:linespacing="125%"><tspan
         sodipodi:role="line"
         id="tspan2991"
         x="222.85715"
         y="463.79074" /></text>
    <g
       transform="matrix(0.11134789,0,0,0.05730306,3.4365118,985.25345)"
       style="font-size:322.12414551px;font-style:normal;font-variant:normal;font-weight:normal;font-stretch:normal;line-height:125%;letter-spacing:0px;word-spacing:0px;fill:#00767f;fill-opacity:1;stroke:none;font-family:STIXSizeOneSym;-inkscape-font-specification:STIXSizeOneSym"
       id="text2993">
      <path
         d="m 364.00347,578.92889 0,-126.14432 c 11.467,-54.1038 -103.80954,0 -103.80954,0 -68.80199,19.93298 0,-52.21934 0,-52.21934 8.60025,-17.08541 112.25617,-34.17082 169.59116,8.54271 20.06725,45.56109 -2.86675,193.09945 -2.86675,193.09945 -24.53722,17.40648 -51.59059,30.61859 -81.16018,39.63637 -29.57033,8.80808 -61.13259,13.21211 -94.68688,13.21212 C 177.67039,655.05587 120.2082,633.66484 78.684525,590.88271 37.370369,547.89098 16.71334,488.12191 16.713376,411.57533 16.71334,334.8195 37.370369,275.05043 78.684525,232.26794 120.2082,189.27657 177.67039,167.78068 251.07128,167.7802 c 30.61827,4.8e-4 59.66394,3.77537 87.13709,11.32468 27.68216,7.55024 78.96341,-29.74347 76.44157,33.34488 l 0,67.63349 c 10.91236,99.67522 -34.11108,-23.52709 -72.00195,-44.98414 -26.42457,-10.06596 -57.0787,-15.09914 -86.22895,-15.09957 -57.46247,4.3e-4 -100.66397,16.04371 -129.60464,48.12988 -28.73124,32.08693 -43.096788,79.90219 -43.096685,143.44591 -1.03e-4,63.33447 14.365445,111.04487 43.096685,143.13133 28.94067,32.08665 72.14217,48.12992 129.60464,48.12988 22.43934,4e-5 42.46722,-1.8874 60.0837,-5.66234 17.61581,-3.98455 33.44937,-10.06632 47.50073,-18.24531"
         style="font-size:644.24829102px;fill:#00767f;fill-opacity:1"
         id="path3783"
         inkscape:connector-curvature="0"
         sodipodi:nodetypes="cccccccscsccccccccscscc" />
    </g>
    <g
       transform="matrix(0.12261747,0,0,0.05203641,3.4365118,985.25345)"
       style="font-size:663.84759521px;font-style:normal;font-variant:normal;font-weight:normal;font-stretch:normal;line-height:125%;letter-spacing:0px;word-spacing:0px;fill:#667680;fill-opacity:1;stroke:none;font-family:STIXSizeOneSym;-inkscape-font-specification:STIXSizeOneSym"
       id="text3001">
      <path
         d="m 642.95714,459.63096 0,63.85643 c 19.40421,157.44681 -48.29782,-20.74481 -70.33932,-26.57984 -22.04208,-5.83416 -43.32754,-8.75145 -63.85644,-8.75189 -35.65606,4.4e-4 -63.2083,6.91551 -82.6568,20.74523 -19.23269,13.83057 -28.84896,33.4953 -28.84885,58.99427 -1.1e-4,21.39387 6.37472,37.60107 19.12452,48.62165 12.96563,10.80511 37.38448,19.557 73.25662,26.25569 l 39.5456,8.10361 c 48.83746,9.29241 84.81745,25.7157 107.94007,49.26994 23.33802,23.3386 35.0072,54.67252 35.00759,94.00186 -3.9e-4,46.89297 -15.7754,82.44076 -47.32508,106.64348 -31.33425,24.20278 -77.3627,36.30416 -138.08548,36.30417 -22.90638,-10e-6 -47.32523,-2.59316 -73.25662,-7.77946 -46.54172,19.89986 -179.9637,87.487 -80.06365,-23.01425 l 0,-67.42202 c 23.97649,-79.16245 56.4771,30.96315 80.72205,43.11833 15.08613,7.56341 47.96307,1.93777 72.59822,1.93773 37.38441,4e-5 66.23322,-7.34722 86.54653,-22.04182 20.31274,-14.69446 30.46926,-35.65577 30.46957,-62.884 -3.1e-4,-23.77043 -7.34758,-42.35469 -22.04181,-55.75282 -14.47873,-13.39777 -38.35734,-23.44623 -71.6359,-30.14543 l -39.86975,-7.77946 c -48.83788,-9.7241 -84.16958,-24.95887 -105.9952,-45.70435 -21.82577,-20.74495 -32.73862,-49.59377 -32.73858,-86.54654 -4e-5,-42.78665 15.01863,-76.49763 45.05606,-101.13303 30.25336,-24.63449 71.85184,-36.95196 124.79557,-36.95245 22.68987,4.9e-4 45.81214,2.0534 69.36689,6.15874 23.55418,4.10631 68.47506,-52.45039 72.28419,18.47623"
         id="path3786"
         inkscape:connector-curvature="0"
         sodipodi:nodetypes="ccccccccccccscccssscccccscccc"
         style="fill:#667680;fill-opacity:1" />
    </g>
    <g
       transform="matrix(0.63905242,0,0,0.31777397,-21.118822,975.86779)"
       style="font-size:34.24565887px;font-style:normal;font-variant:normal;font-weight:normal;font-stretch:normal;line-height:125%;letter-spacing:0px;word-spacing:0px;fill:#667680;fill-opacity:1;stroke:none;font-family:STIXSizeOneSym;-inkscape-font-specification:STIXSizeOneSym"
       id="text3800">
      <path
         d="m 124.75608,70.815074 c -1.64987,1.6e-5 -2.95414,0.646581 -3.91283,1.939695 -0.95871,1.281996 -1.43806,3.043327 -1.43806,5.283998 0,2.24069 0.47378,4.007595 1.42133,5.30072 0.9587,1.281985 2.26855,1.922976 3.92956,1.922974 1.6387,2e-6 2.9374,-0.646562 3.89611,-1.939696 0.95869,-1.293125 1.43804,-3.054455 1.43805,-5.283998 -1e-5,-2.218376 -0.47936,-3.974133 -1.43805,-5.267276 -0.95871,-1.304262 -2.25741,-1.956401 -3.89611,-1.956417 m 0,-2.608556 c 2.67543,1.9e-5 4.77676,0.869537 6.30401,2.608556 1.52721,1.739052 2.29083,4.146947 2.29085,7.223693 -2e-5,3.065617 -0.76364,5.473513 -2.29085,7.223694 -1.52725,1.739038 -3.62858,2.608556 -6.30401,2.608556 -2.6866,0 -4.79351,-0.869518 -6.32073,-2.608556 -1.51609,-1.750181 -2.27413,-4.158077 -2.27413,-7.223694 0,-3.076746 0.75804,-5.484641 2.27413,-7.223693 1.52722,-1.739019 3.63413,-2.608537 6.32073,-2.608556"
         id="path3867"
         inkscape:connector-curvature="0" />
      <path
         d="m 145.69141,70.815074 c -1.64986,1.6e-5 -2.95414,0.646581 -3.91283,1.939695 -0.95871,1.281996 -1.43806,3.043327 -1.43805,5.283998 -1e-5,2.24069 0.47377,4.007595 1.42133,5.30072 0.95869,1.281985 2.26854,1.922976 3.92955,1.922974 1.6387,2e-6 2.9374,-0.646562 3.89612,-1.939696 0.95868,-1.293125 1.43803,-3.054455 1.43805,-5.283998 -2e-5,-2.218376 -0.47937,-3.974133 -1.43805,-5.267276 -0.95872,-1.304262 -2.25742,-1.956401 -3.89612,-1.956417 m 0,-2.608556 c 2.67543,1.9e-5 4.77677,0.869537 6.30401,2.608556 1.52722,1.739052 2.29083,4.146947 2.29085,7.223693 -2e-5,3.065617 -0.76363,5.473513 -2.29085,7.223694 -1.52724,1.739038 -3.62858,2.608556 -6.30401,2.608556 -2.68659,0 -4.7935,-0.869518 -6.32073,-2.608556 -1.51608,-1.750181 -2.27413,-4.158077 -2.27412,-7.223694 -1e-5,-3.076746 0.75804,-5.484641 2.27412,-7.223693 1.52723,-1.739019 3.63414,-2.608537 6.32073,-2.608556"
         id="path3869"
         inkscape:connector-curvature="0" />
      <path
         d="m 171.69337,71.500656 0,-10.133237 3.07676,0 0,26.018674 -3.07676,0 0,-2.809214 c -0.64658,1.114769 -1.46594,1.94527 -2.45806,2.491505 -0.98101,0.535089 -2.16266,0.802633 -3.54497,0.802633 -2.26298,0 -4.10792,-0.902961 -5.53482,-2.708885 -1.41575,-1.805919 -2.12363,-4.180372 -2.12363,-7.123365 0,-2.942974 0.70788,-5.317426 2.12363,-7.123364 1.4269,-1.805905 3.27184,-2.708866 5.53482,-2.708885 1.38231,1.9e-5 2.56396,0.273137 3.54497,0.819354 0.99212,0.535106 1.81148,1.360033 2.45806,2.474784 m -10.48439,6.538111 c -1e-5,2.262985 0.46262,4.041038 1.38788,5.334163 0.9364,1.281985 2.21838,1.922976 3.84595,1.922974 1.62755,2e-6 2.90953,-0.640989 3.84595,-1.922974 0.93639,-1.293125 1.40459,-3.071178 1.40461,-5.334163 -2e-5,-2.262966 -0.46822,-4.035445 -1.40461,-5.317441 -0.93642,-1.293114 -2.2184,-1.939679 -3.84595,-1.939695 -1.62757,1.6e-5 -2.90955,0.646581 -3.84595,1.939695 -0.92526,1.281996 -1.38789,3.054475 -1.38788,5.317441"
         id="path3871"
         inkscape:connector-curvature="0" />
    </g>
    <g
       transform="matrix(0.63905242,0,0,0.31777397,-21.118822,975.86779)"
       style="font-size:34.24565887px;font-style:normal;font-variant:normal;font-weight:normal;font-stretch:normal;line-height:125%;letter-spacing:0px;word-spacing:0px;fill:#00767f;fill-opacity:1;stroke:none;font-family:STIXSizeOneSym;-inkscape-font-specification:STIXSizeOneSym"
       id="text3804">
      <path
         d="m 187.28897,171.2092 0,11.30374 -3.07676,0 0,-11.20341 c -2e-5,-1.77247 -0.34559,-3.09904 -1.03673,-3.97972 -0.69117,-0.88065 -1.72791,-1.32099 -3.1102,-1.321 -1.66102,10e-6 -2.97087,0.52953 -3.92956,1.58854 -0.95871,1.05904 -1.43806,2.50267 -1.43805,4.33087 l 0,10.58472 -3.09348,0 0,-26.01867 3.09348,0 0,10.20012 c 0.73574,-1.1259 1.59968,-1.96755 2.59183,-2.52495 1.00328,-0.55737 2.15707,-0.83606 3.46136,-0.83608 2.15148,2e-5 3.77904,0.66888 4.88268,2.00659 1.1036,1.32658 1.65541,3.283 1.65543,5.86925"
         id="path3852"
         inkscape:connector-curvature="0" />
      <path
         d="m 209.47842,172.3797 0,1.50494 -14.1464,0 c 0.13376,2.11806 0.76918,3.73447 1.90625,4.84924 1.1482,1.10362 2.74232,1.65543 4.78235,1.65543 1.18164,0 2.32428,-0.14492 3.42791,-0.43476 1.11475,-0.28984 2.21837,-0.7246 3.31086,-1.30428 l 0,2.90954 c -1.10364,0.46821 -2.23512,0.82493 -3.39447,1.07018 -1.15937,0.24525 -2.33545,0.36787 -3.52824,0.36787 -2.98758,0 -5.35646,-0.86951 -7.10664,-2.60855 -1.73904,-1.73904 -2.60856,-4.09119 -2.60855,-7.05648 -1e-5,-3.0656 0.82492,-5.49579 2.47478,-7.29058 1.661,-1.80591 3.8961,-2.70887 6.70533,-2.70889 2.51936,2e-5 4.50922,0.8138 5.96958,2.44134 1.47147,1.61643 2.20722,3.8181 2.20724,6.605 m -3.07676,-0.90296 c -0.0223,-1.68329 -0.49609,-3.02658 -1.42133,-4.02988 -0.91412,-1.00328 -2.12922,-1.50492 -3.64529,-1.50494 -1.71675,2e-5 -3.09349,0.48494 -4.13021,1.45477 -1.0256,0.96986 -1.61642,2.33545 -1.77248,4.09677 l 10.96931,-0.0167"
         id="path3854"
         inkscape:connector-curvature="0" />
      <path
         d="m 217.50474,179.70373 0,9.93257 -3.09348,0 0,-25.85146 3.09348,0 0,2.84266 c 0.64656,-1.11475 1.46034,-1.93968 2.44135,-2.47478 0.99213,-0.54622 2.17378,-0.81934 3.54496,-0.81936 2.27411,2e-5 4.11905,0.90298 5.53482,2.70889 1.42688,1.80594 2.14033,4.18039 2.14035,7.12336 -2e-5,2.943 -0.71347,5.31745 -2.14035,7.12337 -1.41577,1.80592 -3.26071,2.70888 -5.53482,2.70888 -1.37118,0 -2.55283,-0.26754 -3.54496,-0.80263 -0.98101,-0.54623 -1.79479,-1.37674 -2.44135,-2.4915 m 10.46767,-6.53812 c -1e-5,-2.26296 -0.46822,-4.03544 -1.4046,-5.31744 -0.92528,-1.29311 -2.20168,-1.93968 -3.82923,-1.93969 -1.62757,1e-5 -2.90955,0.64658 -3.84595,1.93969 -0.92526,1.282 -1.38789,3.05448 -1.38789,5.31744 0,2.26299 0.46263,4.04104 1.38789,5.33417 0.9364,1.28198 2.21838,1.92297 3.84595,1.92297 1.62755,0 2.90395,-0.64099 3.82923,-1.92297 0.93638,-1.29313 1.40459,-3.07118 1.4046,-5.33417"
         id="path3856"
         inkscape:connector-curvature="0" />
      <path
         d="m 251.83401,171.2092 0,11.30374 -3.07676,0 0,-11.20341 c -1e-5,-1.77247 -0.34559,-3.09904 -1.03673,-3.97972 -0.69117,-0.88065 -1.7279,-1.32099 -3.1102,-1.321 -1.66101,10e-6 -2.97087,0.52953 -3.92956,1.58854 -0.9587,1.05904 -1.43805,2.50267 -1.43805,4.33087 l 0,10.58472 -3.09348,0 0,-26.01867 3.09348,0 0,10.20012 c 0.73574,-1.1259 1.59969,-1.96755 2.59184,-2.52495 1.00328,-0.55737 2.15706,-0.83606 3.46135,-0.83608 2.15149,2e-5 3.77905,0.66888 4.88268,2.00659 1.1036,1.32658 1.65541,3.283 1.65543,5.86925"
         id="path3858"
         inkscape:connector-curvature="0" />
      <path
         d="m 274.02345,172.3797 0,1.50494 -14.1464,0 c 0.13377,2.11806 0.76919,3.73447 1.90626,4.84924 1.1482,1.10362 2.74232,1.65543 4.78235,1.65543 1.18164,0 2.32428,-0.14492 3.42791,-0.43476 1.11475,-0.28984 2.21837,-0.7246 3.31086,-1.30428 l 0,2.90954 c -1.10364,0.46821 -2.23513,0.82493 -3.39447,1.07018 -1.15937,0.24525 -2.33545,0.36787 -3.52824,0.36787 -2.98758,0 -5.35646,-0.86951 -7.10664,-2.60855 -1.73904,-1.73904 -2.60856,-4.09119 -2.60856,-7.05648 0,-3.0656 0.82493,-5.49579 2.47479,-7.29058 1.661,-1.80591 3.8961,-2.70887 6.70532,-2.70889 2.51937,2e-5 4.50922,0.8138 5.96958,2.44134 1.47148,1.61643 2.20723,3.8181 2.20724,6.605 m -3.07675,-0.90296 c -0.0223,-1.68329 -0.49609,-3.02658 -1.42133,-4.02988 -0.91413,-1.00328 -2.12922,-1.50492 -3.64529,-1.50494 -1.71675,2e-5 -3.09349,0.48494 -4.13022,1.45477 -1.02559,0.96986 -1.61641,2.33545 -1.77248,4.09677 l 10.96932,-0.0167"
         id="path3860"
         inkscape:connector-curvature="0" />
      <path
         d="m 289.92561,166.66095 c -0.34559,-0.20065 -0.72461,-0.34557 -1.13706,-0.43476 -0.40133,-0.10032 -0.84723,-0.15048 -1.33772,-0.1505 -1.73905,2e-5 -3.07677,0.56855 -4.01316,1.7056 -0.92527,1.12593 -1.38789,2.74791 -1.38789,4.86596 l 0,9.86569 -3.09348,0 0,-18.7281 3.09348,0 0,2.90955 c 0.64656,-1.13705 1.48821,-1.9787 2.52495,-2.52495 1.03672,-0.55737 2.29641,-0.83606 3.77906,-0.83608 0.21179,2e-5 0.4459,0.0167 0.70231,0.0502 0.25638,0.0223 0.54064,0.0613 0.85279,0.11705 l 0.0167,3.16037"
         id="path3862"
         inkscape:connector-curvature="0" />
      <path
         d="m 304.90809,166.6275 0,-10.13323 3.07676,0 0,26.01867 -3.07676,0 0,-2.80921 c -0.64658,1.11476 -1.46593,1.94527 -2.45806,2.4915 -0.98101,0.53509 -2.16266,0.80263 -3.54496,0.80263 -2.26299,0 -4.10792,-0.90296 -5.53482,-2.70888 -1.41576,-1.80592 -2.12363,-4.18037 -2.12363,-7.12337 0,-2.94297 0.70787,-5.31742 2.12363,-7.12336 1.4269,-1.80591 3.27183,-2.70887 5.53482,-2.70889 1.3823,2e-5 2.56395,0.27314 3.54496,0.81936 0.99213,0.5351 1.81148,1.36003 2.45806,2.47478 m -10.48439,6.53811 c 0,2.26299 0.46263,4.04104 1.38789,5.33417 0.9364,1.28198 2.21838,1.92297 3.84595,1.92297 1.62755,0 2.90953,-0.64099 3.84595,-1.92297 0.93639,-1.29313 1.40459,-3.07118 1.4046,-5.33417 -1e-5,-2.26296 -0.46821,-4.03544 -1.4046,-5.31744 -0.93642,-1.29311 -2.2184,-1.93968 -3.84595,-1.93969 -1.62757,1e-5 -2.90955,0.64658 -3.84595,1.93969 -0.92526,1.282 -1.38789,3.05448 -1.38789,5.31744"
         id="path3864"
         inkscape:connector-curvature="0" />
    </g>
    <g
       transform="matrix(0.55336657,0,0,0.36697969,-21.118822,975.86779)"
       style="font-size:42.66858292px;font-style:normal;font-variant:normal;font-weight:normal;font-stretch:normal;line-height:125%;letter-spacing:0px;word-spacing:0px;fill:#ef7247;fill-opacity:1;stroke:none;font-family:STIXSizeOneSym;-inkscape-font-specification:STIXSizeOneSym"
       id="text3808">
      <path
         d="m 51.733201,172.29987 0,11.68803 5.291904,0 c 1.958406,1e-5 3.472361,-0.50696 4.541871,-1.52091 1.069473,-1.01391 1.604219,-2.45842 1.604238,-4.33352 -1.9e-5,-1.86118 -0.534765,-3.29874 -1.604238,-4.3127 -1.06951,-1.01391 -2.583465,-1.52087 -4.541871,-1.5209 l -5.291904,0 m -4.208523,-3.45849 9.500427,0 c 3.486251,3e-5 6.118311,0.79173 7.896188,2.37511 1.791724,1.56954 2.687596,3.8752 2.687621,6.91698 -2.5e-5,3.0696 -0.895897,5.38914 -2.687621,6.95864 -1.777877,1.56953 -4.409937,2.35429 -7.896188,2.35427 l -5.291904,0 0,12.50057 -4.208523,0 0,-31.10557"
         style="fill:#ef7247"
         id="path3817"
         inkscape:connector-curvature="0" />
      <path
         d="m 85.880568,180.19606 c -0.430592,-0.24999 -0.902835,-0.43056 -1.41673,-0.54169 -0.500038,-0.12499 -1.055618,-0.18749 -1.666742,-0.18751 -2.166776,2e-5 -3.833516,0.70838 -5.000224,2.12509 -1.152838,1.40286 -1.729252,3.42378 -1.729244,6.06278 l 0,12.29222 -3.85434,0 0,-23.33439 3.85434,0 0,3.62517 c 0.805583,-1.41671 1.85424,-2.46537 3.145974,-3.14598 1.291713,-0.69445 2.861226,-1.04169 4.708545,-1.04171 0.263885,2e-5 0.555564,0.0209 0.875039,0.0625 0.319442,0.0278 0.673625,0.0764 1.062548,0.14584 l 0.02083,3.93768"
         style="fill:#ef7247"
         id="path3819"
         inkscape:connector-curvature="0" />
      <path
         d="m 108.96494,187.32138 0,1.87508 -17.625793,0 c 0.166668,2.63902 0.95837,4.653 2.375107,6.04194 1.43061,1.37507 3.416808,2.0626 5.958601,2.06259 1.472275,10e-6 2.895945,-0.18056 4.271025,-0.54169 1.38893,-0.36112 2.76399,-0.90281 4.12519,-1.62507 l 0,3.62516 c -1.37509,0.58336 -2.78487,1.02783 -4.22936,1.3334 -1.44453,0.30556 -2.90987,0.45835 -4.396032,0.45835 -3.7224,0 -6.673919,-1.08338 -8.854564,-3.25015 -2.166768,-2.16676 -3.250149,-5.09744 -3.250146,-8.79206 -3e-6,-3.8196 1.02782,-6.84751 3.083472,-9.08374 2.06953,-2.25008 4.854374,-3.37513 8.354542,-3.37515 3.139008,2e-5 5.618288,1.01396 7.437838,3.0418 1.83339,2.014 2.7501,4.75718 2.75012,8.22954 m -3.83351,-1.12505 c -0.0278,-2.0973 -0.6181,-3.77099 -1.77091,-5.02106 -1.13896,-1.25004 -2.65291,-1.87506 -4.54187,-1.87509 -2.138997,3e-5 -3.85435,0.60422 -5.146064,1.81259 -1.277843,1.2084 -2.013986,2.90986 -2.208433,5.10439 l 13.667277,-0.0208"
         style="fill:#ef7247"
         id="path3821"
         inkscape:connector-curvature="0" />
      <path
         d="m 113.3193,186.55051 11.22967,0 0,3.41682 -11.22967,0 0,-3.41682"
         style="fill:#ef7247"
         id="path3823"
         inkscape:connector-curvature="0" />
      <path
         d="m 135.04945,172.29987 0,11.68803 5.2919,0 c 1.95841,1e-5 3.47236,-0.50696 4.54187,-1.52091 1.06947,-1.01391 1.60422,-2.45842 1.60424,-4.33352 -2e-5,-1.86118 -0.53477,-3.29874 -1.60424,-4.3127 -1.06951,-1.01391 -2.58346,-1.52087 -4.54187,-1.5209 l -5.2919,0 m -4.20853,-3.45849 9.50043,0 c 3.48625,3e-5 6.11831,0.79173 7.89619,2.37511 1.79172,1.56954 2.6876,3.8752 2.68762,6.91698 -2e-5,3.0696 -0.8959,5.38914 -2.68762,6.95864 -1.77788,1.56953 -4.40994,2.35429 -7.89619,2.35427 l -5.2919,0 0,12.50057 -4.20853,0 0,-31.10557"
         style="fill:#ef7247"
         id="path3825"
         inkscape:connector-curvature="0" />
      <path
         d="m 169.19681,180.19606 c -0.43059,-0.24999 -0.90283,-0.43056 -1.41673,-0.54169 -0.50004,-0.12499 -1.05562,-0.18749 -1.66674,-0.18751 -2.16678,2e-5 -3.83352,0.70838 -5.00022,2.12509 -1.15284,1.40286 -1.72926,3.42378 -1.72925,6.06278 l 0,12.29222 -3.85434,0 0,-23.33439 3.85434,0 0,3.62517 c 0.80558,-1.41671 1.85424,-2.46537 3.14598,-3.14598 1.29171,-0.69445 2.86122,-1.04169 4.70854,-1.04171 0.26389,2e-5 0.55557,0.0209 0.87504,0.0625 0.31944,0.0278 0.67362,0.0764 1.06255,0.14584 l 0.0208,3.93768"
         style="fill:#ef7247"
         id="path3827"
         inkscape:connector-curvature="0" />
      <path
         d="m 173.25949,176.61256 3.83351,0 0,23.33439 -3.83351,0 0,-23.33439 m 0,-9.08374 3.83351,0 0,4.85439 -3.83351,0 0,-4.85439"
         style="fill:#ef7247"
         id="path3829"
         inkscape:connector-curvature="0" />
      <path
         d="m 203.26084,181.09193 c 0.95835,-1.72228 2.10424,-2.99317 3.43765,-3.81267 1.33337,-0.81946 2.90288,-1.2292 4.70855,-1.22922 2.43063,2e-5 4.30571,0.85423 5.62525,2.56261 1.31947,1.69454 1.97922,4.11132 1.97926,7.25033 l 0,14.08397 -3.85434,0 0,-13.95897 c -4e-5,-2.23619 -0.39589,-3.89599 -1.18756,-4.97939 -0.79173,-1.08336 -2.00012,-1.62505 -3.62516,-1.62507 -1.98623,2e-5 -3.55574,0.65977 -4.70854,1.97926 -1.15286,1.31952 -1.72927,3.11821 -1.72925,5.39607 l 0,13.1881 -3.85434,0 0,-13.95897 c -2e-5,-2.25008 -0.39587,-3.90987 -1.18755,-4.97939 -0.79172,-1.08336 -2.014,-1.62505 -3.66683,-1.62507 -1.95844,2e-5 -3.51406,0.66672 -4.66688,2.00009 -1.15284,1.31952 -1.72925,3.11127 -1.72924,5.37524 l 0,13.1881 -3.85434,0 0,-23.33439 3.85434,0 0,3.62517 c 0.87503,-1.4306 1.92368,-2.4862 3.14597,-3.16681 1.22227,-0.68056 2.67372,-1.02086 4.35436,-1.02088 1.69451,2e-5 3.13207,0.4306 4.3127,1.29172 1.19447,0.86117 2.07646,2.11123 2.64595,3.75017"
         style="fill:#ef7247"
         id="path3831"
         inkscape:connector-curvature="0" />
      <path
         d="m 237.2832,188.21725 c -3.09737,1e-5 -5.2433,0.3542 -6.43779,1.06255 -1.1945,0.70837 -1.79175,1.91676 -1.79174,3.62516 -1e-5,1.36118 0.44446,2.44456 1.33339,3.25015 0.90281,0.7917 2.12509,1.18755 3.66683,1.18755 2.12508,0 3.82655,-0.75003 5.1044,-2.2501 1.2917,-1.51395 1.93757,-3.52098 1.93759,-6.0211 l 0,-0.85421 -3.81268,0 m 7.64618,-1.5834 0,13.3131 -3.8335,0 0,-3.54183 c -0.87506,1.41673 -1.96539,2.46539 -3.27099,3.14597 -1.30562,0.6667 -2.90292,1.00005 -4.79188,1.00005 -2.389,0 -4.29186,-0.6667 -5.70859,-2.00009 -1.40284,-1.34728 -2.10426,-3.14597 -2.10426,-5.39608 0,-2.6251 0.87504,-4.60436 2.62512,-5.93776 1.76396,-1.33338 4.38908,-2.00008 7.87535,-2.00009 l 5.37525,0 0,-0.37502 c -2e-5,-1.76395 -0.58338,-3.12512 -1.75008,-4.08352 -1.15285,-0.97224 -2.77792,-1.45837 -4.87522,-1.4584 -1.33341,3e-5 -2.63207,0.15975 -3.89601,0.47919 -1.26395,0.31948 -2.47928,0.79867 -3.646,1.43757 l 0,-3.54183 c 1.40284,-0.54167 2.76401,-0.94446 4.08352,-1.20839 1.31949,-0.27776 2.60427,-0.41666 3.85434,-0.41668 3.37513,2e-5 5.89608,0.87506 7.56284,2.62512 1.66672,1.75009 2.50009,4.40299 2.50011,7.95869"
         style="fill:#ef7247"
         id="path3833"
         inkscape:connector-curvature="0" />
      <path
         d="m 266.36785,180.19606 c -0.43059,-0.24999 -0.90284,-0.43056 -1.41673,-0.54169 -0.50004,-0.12499 -1.05562,-0.18749 -1.66674,-0.18751 -2.16678,2e-5 -3.83352,0.70838 -5.00023,2.12509 -1.15284,1.40286 -1.72925,3.42378 -1.72924,6.06278 l 0,12.29222 -3.85434,0 0,-23.33439 3.85434,0 0,3.62517 c 0.80558,-1.41671 1.85424,-2.46537 3.14597,-3.14598 1.29171,-0.69445 2.86123,-1.04169 4.70855,-1.04171 0.26388,2e-5 0.55556,0.0209 0.87504,0.0625 0.31944,0.0278 0.67362,0.0764 1.06254,0.14584 l 0.0208,3.93768"
         style="fill:#ef7247"
         id="path3835"
         inkscape:connector-curvature="0" />
      <path
         d="m 280.1393,202.11371 c -1.0834,2.7779 -2.139,4.59048 -3.16681,5.43774 -1.02783,0.84726 -2.40289,1.27088 -4.12519,1.27089 l -3.06263,0 0,-3.20847 2.2501,0 c 1.05559,-1e-5 1.87507,-0.25002 2.45844,-0.75004 0.58335,-0.50002 1.22921,-1.68063 1.93759,-3.54182 l 0.68753,-1.75008 -9.43792,-22.95937 4.06268,0 7.29199,18.25082 7.292,-18.25082 4.06268,0 -10.25046,25.50115"
         style="fill:#ef7247"
         id="path3837"
         inkscape:connector-curvature="0" />
      <path
         d="m 328.07894,169.86226 0,4.10435 c -1.59731,-0.76389 -3.10432,-1.33336 -4.52103,-1.70841 -1.41675,-0.37499 -2.78487,-0.5625 -4.10436,-0.56252 -2.29178,2e-5 -4.06269,0.44449 -5.31273,1.33339 -1.23618,0.88895 -1.85426,2.1529 -1.85425,3.79184 -10e-6,1.37508 0.40973,2.41679 1.22922,3.12514 0.83336,0.69449 2.40287,1.25702 4.70854,1.68757 l 2.54178,0.52086 c 3.13901,0.59727 5.45162,1.65287 6.93782,3.16681 1.50004,1.50008 2.25007,3.51406 2.2501,6.04194 -3e-5,3.01403 -1.01396,5.29885 -3.04181,6.85447 -2.014,1.55563 -4.97246,2.33344 -8.8754,2.33344 -1.4723,0 -3.04181,-0.16668 -4.70854,-0.50002 -1.65286,-0.33335 -3.36821,-0.82643 -5.14606,-1.47924 l 0,-4.33352 c 1.7084,0.95838 3.38209,1.68063 5.02105,2.16676 1.63896,0.48614 3.25014,0.7292 4.83355,0.7292 2.40287,0 4.25712,-0.47224 5.56275,-1.41673 1.3056,-0.94448 1.95841,-2.29176 1.95843,-4.04185 -2e-5,-1.52784 -0.47227,-2.72233 -1.41673,-3.58349 -0.93062,-0.86114 -2.46541,-1.507 -4.60438,-1.93759 l -2.56261,-0.50002 c -3.13904,-0.62502 -5.40997,-1.60423 -6.81281,-2.93764 -1.40284,-1.33337 -2.10426,-3.18762 -2.10426,-5.56275 0,-2.75009 0.96532,-4.91685 2.89596,-6.50029 1.94453,-1.58337 4.61826,-2.37507 8.0212,-2.3751 1.45838,3e-5 2.94456,0.13198 4.45853,0.39585 1.51394,0.26393 3.06262,0.65978 4.64604,1.18755"
         style="fill:#ef7247"
         id="path3839"
         inkscape:connector-curvature="0" />
      <path
         d="m 353.14258,177.50844 0,3.58349 c -1.0834,-0.59723 -2.17373,-1.04169 -3.27098,-1.33339 -1.0834,-0.30555 -2.18067,-0.45833 -3.29181,-0.45836 -2.48624,3e-5 -4.41688,0.79173 -5.79193,2.37511 -1.37507,1.56953 -2.0626,3.77796 -2.06259,6.6253 -1e-5,2.84736 0.68752,5.06273 2.06259,6.64613 1.37505,1.56952 3.30569,2.35428 5.79193,2.35427 1.11114,10e-6 2.20841,-0.14583 3.29181,-0.43752 1.09725,-0.30556 2.18758,-0.75697 3.27098,-1.35422 l 0,3.54182 c -1.06951,0.50002 -2.18067,0.87504 -3.33348,1.12505 -1.13896,0.25001 -2.35429,0.37502 -3.646,0.37502 -3.51406,0 -6.30584,-1.10422 -8.37537,-3.31265 -2.06954,-2.20843 -3.10431,-5.18772 -3.10431,-8.9379 0,-3.80571 1.04171,-6.7989 3.12514,-8.97957 2.09731,-2.18063 4.96549,-3.27096 8.60455,-3.27098 1.1806,2e-5 2.33342,0.12503 3.45849,0.37502 1.12503,0.23614 2.21536,0.59727 3.27098,1.08338"
         style="fill:#ef7247"
         id="path3841"
         inkscape:connector-curvature="0" />
      <path
         d="m 379.2479,185.86298 0,14.08397 -3.8335,0 0,-13.95897 c -2e-5,-2.20841 -0.4306,-3.86126 -1.29173,-4.95855 -0.86116,-1.09725 -2.15289,-1.64589 -3.87517,-1.64591 -2.06955,2e-5 -3.70157,0.65977 -4.89605,1.97926 -1.19451,1.31952 -1.79176,3.11821 -1.79175,5.39607 l 0,13.1881 -3.85434,0 0,-32.41813 3.85434,0 0,12.70891 c 0.9167,-1.40282 1.99313,-2.45148 3.22931,-3.14598 1.25004,-0.69445 2.68761,-1.04169 4.31269,-1.04171 2.68066,2e-5 4.70853,0.83339 6.08361,2.50011 1.37504,1.65287 2.06257,4.09048 2.06259,7.31283"
         style="fill:#ef7247"
         id="path3843"
         inkscape:connector-curvature="0" />
      <path
         d="m 395.97784,179.30018 c -2.05566,3e-5 -3.68073,0.80562 -4.87522,2.41678 -1.19451,1.59731 -1.79176,3.79185 -1.79175,6.58363 -1e-5,2.7918 0.5903,4.99329 1.77091,6.60446 1.19449,1.5973 2.82651,2.39595 4.89606,2.39594 2.04174,10e-6 3.65987,-0.80559 4.85438,-2.41677 1.19448,-1.61118 1.79173,-3.80572 1.79175,-6.58363 -2e-5,-2.764 -0.59727,-4.9516 -1.79175,-6.5628 -1.19451,-1.62505 -2.81264,-2.43758 -4.85438,-2.43761 m 0,-3.25014 c 3.33346,2e-5 5.95163,1.0834 7.85452,3.25014 1.90284,2.16679 2.85427,5.16692 2.85429,9.00041 -2e-5,3.81962 -0.95145,6.81975 -2.85429,9.0004 -1.90289,2.16677 -4.52106,3.25015 -7.85452,3.25015 -3.34739,0 -5.9725,-1.08338 -7.87536,-3.25015 -1.88897,-2.18065 -2.83346,-5.18078 -2.83346,-9.0004 0,-3.83349 0.94449,-6.83362 2.83346,-9.00041 1.90286,-2.16674 4.52797,-3.25012 7.87536,-3.25014"
         style="fill:#ef7247"
         id="path3845"
         inkscape:connector-curvature="0" />
      <path
         d="m 422.06234,179.30018 c -2.05566,3e-5 -3.68073,0.80562 -4.87522,2.41678 -1.19451,1.59731 -1.79175,3.79185 -1.79175,6.58363 0,2.7918 0.5903,4.99329 1.77092,6.60446 1.19448,1.5973 2.8265,2.39595 4.89605,2.39594 2.04174,10e-6 3.65987,-0.80559 4.85438,-2.41677 1.19448,-1.61118 1.79173,-3.80572 1.79175,-6.58363 -2e-5,-2.764 -0.59727,-4.9516 -1.79175,-6.5628 -1.19451,-1.62505 -2.81264,-2.43758 -4.85438,-2.43761 m 0,-3.25014 c 3.33347,2e-5 5.95164,1.0834 7.85452,3.25014 1.90284,2.16679 2.85427,5.16692 2.85429,9.00041 -2e-5,3.81962 -0.95145,6.81975 -2.85429,9.0004 -1.90288,2.16677 -4.52105,3.25015 -7.85452,3.25015 -3.34738,0 -5.9725,-1.08338 -7.87535,-3.25015 -1.88898,-2.18065 -2.83347,-5.18078 -2.83347,-9.0004 0,-3.83349 0.94449,-6.83362 2.83347,-9.00041 1.90285,-2.16674 4.52797,-3.25012 7.87535,-3.25014"
         style="fill:#ef7247"
         id="path3847"
         inkscape:connector-curvature="0" />
      <path
         d="m 439.10477,167.52882 3.8335,0 0,32.41813 -3.8335,0 0,-32.41813"
         style="fill:#ef7247"
         id="path3849"
         inkscape:connector-curvature="0" />
    </g>
  </g>
</svg>
